<svg width="24" height="24" viewBox="0 0 24 24" fill="none" xmlns="http://www.w3.org/2000/svg">
<circle cx="12" cy="12" r="11.0857" stroke="black" stroke-width="1.82857"/>
<path d="M11.6383 14.882C10.8571 14.8762 10.0898 14.6783 9.40375 14.3058L9.00045 15.881H9C9.71283 16.2392 10.4953 16.4358 11.2926 16.4572V17.7377H12.6052V16.3611C14.1546 16.0923 15 15.0807 15 13.8703C15 12.6599 14.3595 11.9493 12.7526 11.3539C11.6066 10.9247 11.1389 10.6434 11.1389 10.1949C11.1389 9.74644 11.4207 9.43919 12.298 9.43919L12.2975 9.43964C12.9639 9.44634 13.62 9.60177 14.2185 9.89387L14.6089 8.36997H14.6093C14.0059 8.09261 13.3521 7.94254 12.6883 7.92825V6.75H11.3243V8.03047C9.88339 8.31229 9.05135 9.24085 9.05135 10.4253C9.05135 11.7058 10.0375 12.4039 11.4779 12.8903C12.4766 13.2297 12.9058 13.5308 12.9058 14.0618C12.9058 14.5937 12.4065 14.8818 11.6382 14.8818L11.6383 14.882Z" fill="black"/>
</svg>
