<svg width="106" height="48" viewBox="0 0 106 48" fill="none" xmlns="http://www.w3.org/2000/svg">
<mask id="mask0_98_709" style="mask-type:luminance" maskUnits="userSpaceOnUse" x="0" y="0" width="106" height="48">
<path d="M0 0V48H105.438V0H0Z" fill="white"/>
</mask>
<g mask="url(#mask0_98_709)">
<path d="M104.796 47.5433L104.583 47.0047C104.707 46.899 104.723 46.8299 104.723 46.715C104.722 46.5151 104.577 46.3922 104.346 46.3922H104.053V47.5446H104.217V47.0268H104.416L104.624 47.5433H104.796ZM104.217 46.8953V46.5328H104.326C104.483 46.5328 104.551 46.6006 104.552 46.7082C104.552 46.803 104.501 46.8953 104.326 46.8953H104.217Z" fill="#858689"/>
</g>
<mask id="mask1_98_709" style="mask-type:luminance" maskUnits="userSpaceOnUse" x="0" y="0" width="106" height="48">
<path d="M0 0V48H105.438V0H0Z" fill="white"/>
</mask>
<g mask="url(#mask1_98_709)">
<path d="M104.391 48C103.813 48 103.343 47.5305 103.343 46.9528C103.343 46.3769 103.813 45.9086 104.391 45.9086C104.966 45.9086 105.438 46.3769 105.438 46.9528C105.438 47.5305 104.966 48 104.391 48ZM104.391 46.0406C103.887 46.0406 103.476 46.4521 103.476 46.9528C103.476 47.459 103.887 47.8649 104.391 47.8649C104.893 47.8649 105.302 47.459 105.302 46.9528C105.302 46.4521 104.893 46.0406 104.391 46.0406Z" fill="#858689"/>
</g>
<mask id="mask2_98_709" style="mask-type:luminance" maskUnits="userSpaceOnUse" x="0" y="0" width="106" height="48">
<path d="M0 0V48H105.438V0H0Z" fill="white"/>
</mask>
<g mask="url(#mask2_98_709)">
<path d="M49.2528 37.2098L46.44 45.9404L43.0519 37.2636H42.1826L46.256 47.9095H46.6381L49.5499 38.5248L52.5112 47.9095H52.8939L56.9477 37.2636H56.0582L52.7185 45.9331L49.8696 37.2098H49.2528Z" fill="#858689"/>
</g>
<mask id="mask3_98_709" style="mask-type:luminance" maskUnits="userSpaceOnUse" x="0" y="0" width="106" height="48">
<path d="M0 0V48H105.438V0H0Z" fill="white"/>
</mask>
<g mask="url(#mask3_98_709)">
<path d="M60.4619 37.2545V47.8227H65.6326V47.1417H61.2811V37.2545H60.4619Z" fill="#858689"/>
</g>
<mask id="mask4_98_709" style="mask-type:luminance" maskUnits="userSpaceOnUse" x="0" y="0" width="106" height="48">
<path d="M0 0V48H105.438V0H0Z" fill="white"/>
</mask>
<g mask="url(#mask4_98_709)">
<path d="M67.1387 37.2545V47.8227H72.3082V47.1417H67.9542V37.2545H67.1387Z" fill="#858689"/>
</g>
<mask id="mask5_98_709" style="mask-type:luminance" maskUnits="userSpaceOnUse" x="0" y="0" width="106" height="48">
<path d="M0 0V48H105.438V0H0Z" fill="white"/>
</mask>
<g mask="url(#mask5_98_709)">
<path d="M73.75 47.8227H74.5692V37.2557H73.75V47.8227Z" fill="#858689"/>
</g>
<mask id="mask6_98_709" style="mask-type:luminance" maskUnits="userSpaceOnUse" x="0" y="0" width="106" height="48">
<path d="M0 0V48H105.438V0H0Z" fill="white"/>
</mask>
<g mask="url(#mask6_98_709)">
<path d="M58.1318 47.8227H58.9559V37.2557H58.1318V47.8227Z" fill="#858689"/>
</g>
<mask id="mask7_98_709" style="mask-type:luminance" maskUnits="userSpaceOnUse" x="0" y="0" width="106" height="48">
<path d="M0 0V48H105.438V0H0Z" fill="white"/>
</mask>
<g mask="url(#mask7_98_709)">
<path d="M80.0984 37.1994L75.7285 47.8227H76.4902L77.9874 44.1724H82.6073L84.1008 47.8227H84.8668L80.4982 37.1994H80.0984ZM80.2897 38.5285L82.3292 43.495H78.2668L80.2897 38.5285Z" fill="#858689"/>
</g>
<mask id="mask8_98_709" style="mask-type:luminance" maskUnits="userSpaceOnUse" x="0" y="0" width="106" height="48">
<path d="M0 0V48H105.438V0H0Z" fill="white"/>
</mask>
<g mask="url(#mask8_98_709)">
<path d="M94.8614 37.2753L90.8412 42.1807L86.821 37.2753H86V47.8227H86.821V38.4698H86.8516L90.8412 43.3978L94.8278 38.4698H94.8614V47.8227H95.6818V37.2753H94.8614Z" fill="#858689"/>
</g>
<mask id="mask9_98_709" style="mask-type:luminance" maskUnits="userSpaceOnUse" x="0" y="0" width="106" height="48">
<path d="M0 0V48H105.438V0H0Z" fill="white"/>
</mask>
<g mask="url(#mask9_98_709)">
<path d="M102.462 38.987C101.794 38.1244 100.845 37.9196 100.117 37.9196C98.8505 37.9196 97.8919 38.7871 97.8919 39.9346C97.8919 42.7461 102.915 41.403 102.915 45.0986C102.915 46.7211 101.572 47.9878 99.8531 47.9878C98.9881 47.9878 98.0607 47.7518 97.1467 47.0598V46.1018C98.1756 47.0769 98.9881 47.2316 99.8066 47.2316C101.061 47.2316 102.031 46.3182 102.031 45.1285C102.031 42.1287 97.0098 43.4412 97.0098 39.9652C97.0098 38.4056 98.3669 37.1689 100.041 37.164C100.891 37.164 101.977 37.5119 102.462 38.0914V38.987Z" fill="#858689"/>
</g>
<mask id="mask10_98_709" style="mask-type:luminance" maskUnits="userSpaceOnUse" x="0" y="0" width="106" height="48">
<path d="M0 0V48H105.438V0H0Z" fill="white"/>
</mask>
<g mask="url(#mask10_98_709)">
<path d="M15.7646 37.2875V47.852H21.1958V46.4869H17.2826V37.2875H15.7646Z" fill="#858689"/>
</g>
<mask id="mask11_98_709" style="mask-type:luminance" maskUnits="userSpaceOnUse" x="0" y="0" width="106" height="48">
<path d="M0 0V48H105.438V0H0Z" fill="white"/>
</mask>
<g mask="url(#mask11_98_709)">
<path d="M22.1689 37.2875V47.8521H27.6001V46.487H23.6875V37.2875H22.1689Z" fill="#858689"/>
</g>
<mask id="mask12_98_709" style="mask-type:luminance" maskUnits="userSpaceOnUse" x="0" y="0" width="106" height="48">
<path d="M0 0V48H105.438V0H0Z" fill="white"/>
</mask>
<g mask="url(#mask12_98_709)">
<path d="M28.5791 37.2875V47.8521H34.7145V46.487H30.0971V43.2059H34.4217V41.8408H30.0971V38.6502H34.5745V37.2875H28.5791Z" fill="#858689"/>
</g>
<mask id="mask13_98_709" style="mask-type:luminance" maskUnits="userSpaceOnUse" x="0" y="0" width="106" height="48">
<path d="M0 0V48H105.438V0H0Z" fill="white"/>
</mask>
<g mask="url(#mask13_98_709)">
<path d="M42.5104 47.8496L40.5541 42.9143C41.7175 41.9533 41.8489 41.301 41.8361 40.2439C41.8196 38.416 40.5064 37.2875 38.3673 37.2875H35.7031V47.8533H37.2217V43.1289C37.2217 43.1289 38.4756 43.1301 39.0306 43.1264L40.9405 47.8496H42.5104ZM37.2217 41.905V38.5891H38.1968C39.6689 38.5891 40.2576 39.1943 40.2735 40.184C40.2894 41.0693 39.8236 41.905 38.1968 41.905H37.2217Z" fill="#858689"/>
</g>
<mask id="mask14_98_709" style="mask-type:luminance" maskUnits="userSpaceOnUse" x="0" y="0" width="106" height="48">
<path d="M0 0V48H105.438V0H0Z" fill="white"/>
</mask>
<g mask="url(#mask14_98_709)">
<path d="M8.64941 37.2875V47.835H14.7726V46.4717H10.1655V43.1943H14.4798V41.834H10.1655V38.649H14.6344V37.2875H8.64941Z" fill="#858689"/>
</g>
<mask id="mask15_98_709" style="mask-type:luminance" maskUnits="userSpaceOnUse" x="0" y="0" width="106" height="48">
<path d="M0 0V48H105.438V0H0Z" fill="white"/>
</mask>
<g mask="url(#mask15_98_709)">
<path d="M5.9465 37.2875L5.41035 37.8677L1.5204 42.1006V37.2875H0.00488281V47.8136H1.5204V44.1999L3.20647 42.3525L5.41402 47.816H6.97844V47.8148L6.4264 46.4564L4.28671 41.1665L6.58963 38.6453L7.83004 37.2875H5.9465Z" fill="#858689"/>
</g>
<mask id="mask16_98_709" style="mask-type:luminance" maskUnits="userSpaceOnUse" x="0" y="0" width="106" height="48">
<path d="M0 0V48H105.438V0H0Z" fill="white"/>
</mask>
<g mask="url(#mask16_98_709)">
<path d="M0 0V31.9584H4.45912V24.4622L7.72918 21.2123L12.2769 31.9584H16.7947L10.7889 17.7001L15.0054 13.0289L23.182 31.9584H24.8987L31.0335 17.3174L37.2673 31.9584H38.9595L48.3032 10.4044H43.728L38.1036 23.4822L32.6486 10.4044H29.4929L23.9921 23.4822L18.3365 10.4044H12.4059L4.45912 18.3359V0H0Z" fill="#C33641"/>
</g>
</svg>
