<svg width="128" height="32" viewBox="0 0 128 32" fill="none" xmlns="http://www.w3.org/2000/svg">
<path d="M47.0073 20.5777C43.159 20.6391 44.8996 14.0278 44.5295 11.8174C44.5295 10.9035 44.4715 10.1365 43.9695 10.1365C39.4837 12.351 42.6182 20.89 40.4882 20.5774C39.8986 20.5774 39.0721 20.3715 39.0721 19.2798V11.8176C39.1252 7.70625 36.0213 12.1748 35.8565 15.0029V19.308C36.2552 20.9128 33.6426 21.1201 33.6155 19.279V9.93055C33.5623 8.99672 33.2195 8.58853 34.2647 8.48462C35.9591 8.47346 35.9206 9.87262 35.8573 11.0212C37.0843 7.52448 41.2786 7.13171 41.3137 10.9627C42.5786 7.31985 46.9658 7.30151 46.7705 11.1692V17.2747C47.0224 20.44 49.4843 17.4212 49.513 15.4456C49.7596 13.8841 51.1933 14.6954 51.2539 15.7709C50.8021 17.7905 49.597 20.5647 47.0062 20.578" fill="#565656"/>
<path d="M56.2115 15.5931C55.4381 14.7427 54.4044 11.4778 55.5915 10.7565C56.3847 10.5793 56.3887 14.1645 56.2115 15.5931ZM60.7241 14.8846C60.5734 16.2628 59.4416 17.3138 58.0108 16.9497C60.7031 3.66054 48.5821 9.07992 55.651 17.5097C54.9622 18.9213 53.0182 19.0834 52.2938 17.4472C51.8189 17.0509 51.4306 16.5612 51.153 16.0085C49.7559 15.9415 49.538 14.3247 49.7179 13.1259C48.1397 18.4353 53.6821 23.7893 57.39 18.4539C62.3553 20.2381 63.9867 12.5514 60.7233 14.8849" fill="#565656"/>
<path d="M60.4281 9.92966C59.6575 7.69739 62.7213 8.34608 62.6692 9.78218V17.7166C63.3673 20.4907 66.7332 16.6626 66.4141 13.2045C66.3224 10.358 65.6168 10.2983 64.793 9.63495C65.9123 6.02983 68.7261 10.0734 68.6267 13.293C69.412 18.9124 61.0795 24.2003 60.4268 17.6884L60.4281 9.92966Z" fill="#565656"/>
<path d="M71.8445 15.1801C73.3771 14.681 75.371 11.2547 73.6444 10.1657C72.0188 10.2834 71.7122 13.8051 71.8445 15.1801ZM72.1985 16.8012C73.6619 20.3332 78.4502 18.2325 78.5395 14.9127C78.8052 13.5864 80.4574 14.1761 80.3394 15.2085C80.3925 21.3053 69.6542 23.3582 69.397 14.736C69.397 10.9911 71.638 8.18909 73.9096 8.18909C78.722 8.77373 76.3925 15.8641 72.1985 16.8009" fill="#565656"/>
<path d="M87.0932 15.1801C88.6252 14.681 90.6183 11.255 88.8925 10.1657C87.2675 10.2834 86.9603 13.8051 87.0932 15.1801ZM87.4471 16.8012C88.9103 20.3332 93.6978 18.2317 93.7884 14.9127C94.0541 13.5864 95.706 14.1761 95.5875 15.2085C95.6422 21.3053 84.9013 23.3582 84.644 14.736C84.644 10.9911 86.8861 8.18909 89.1578 8.18909C93.9691 8.77373 91.6396 15.8641 87.4471 16.8009" fill="#565656"/>
<path d="M104.702 15.4458C104.948 13.8843 106.381 14.694 106.442 15.7703C106.285 18.6645 102.388 22.6638 99.9237 19.368C97.5713 22.0959 93.5327 19.8729 93.8771 16.124C93.8771 11.1984 97.2983 8.18958 100.897 8.18958C101.694 8.18958 102.252 8.66101 102.252 9.42822C102.317 10.4415 101.615 10.0185 101.014 10.0482C94.2486 9.94192 95.4862 23.1538 99.4812 17.0974C99.4589 16.4413 99.5628 12.1234 99.3627 11.6113C99.7477 10.4649 101.947 11.4519 101.721 12.4086V17.2755C102.235 20.4365 104.653 17.475 104.701 15.4466" fill="#565656"/>
<path d="M104.791 15.1216C105.086 13.8245 105.706 12.1423 106.237 10.5797C104.05 6.97164 111.708 4.80686 108.626 10.1959C110.17 12.8268 112.433 14.4094 111.664 17.5699C113.697 17.382 113.698 15.3142 114.761 14.6501C117.911 16.314 113.13 19.7014 110.514 19.5173C108.196 22.2872 101.084 18.8877 104.378 16.3897C104.969 16.3897 107.652 18.1009 109.127 18.1009C110.71 16.256 109.078 13.3631 107.652 12.1423C107.191 13.3056 106.807 14.4982 106.502 15.7123C106.178 16.9502 104.555 16.1253 104.791 15.1216" fill="#565656"/>
<path d="M121.446 27.7143V24.5596C118.01 27.5094 121.237 33.4214 121.446 27.7153M126.991 14.5608C130.24 15.9228 124.408 22.1894 123.687 22.613V27.7153C122.682 37.2455 112.457 28.8192 121.446 22.318V18.5726C119.18 21.6993 114.144 21.2723 114.436 16.3605C114.436 13.2337 115.497 9.72399 115.497 9.72399C115.704 9.22199 115.497 8.63256 117.061 8.63256C118.506 8.63256 117.65 9.81248 117.533 10.2536C117.001 12.437 116.677 13.7349 116.677 16.2119C116.708 20.9454 120.898 17.8572 121.446 14.678C121.41 14.0283 121.54 9.49012 121.328 8.98547C121.714 7.8401 123.913 8.82602 123.688 9.78271V20.1351C124.905 18.7944 125.793 17.189 126.283 15.4458C126.46 14.8263 126.696 14.5611 126.992 14.5611" fill="#565656"/>
<path d="M51.6018 13.1024C51.841 9.94005 53.764 8.58049 55.3797 10.3387C55.9237 9.94971 56.5361 9.66672 57.1849 9.50449C54.6816 5.64744 49.2471 8.20233 49.3844 12.7309C49.0071 17.0501 51.1301 19.8705 51.7762 19.9266C54.5041 18.9619 50.8306 16.9768 51.6018 13.1019" fill="#565656"/>
<path d="M13.6384 0.323298C11.005 0.323269 8.43071 1.10414 6.24109 2.56716C4.05146 4.03018 2.34484 6.10965 1.33704 8.5426C0.329245 10.9756 0.0655285 13.6527 0.579245 16.2355C1.09296 18.8184 2.36104 21.1909 4.22311 23.053C6.08519 24.9151 8.45764 26.1833 11.0405 26.6971C13.6233 27.2109 16.3004 26.9473 18.7334 25.9395C21.1664 24.9318 23.2459 23.2253 24.709 21.0357C26.1721 18.8461 26.9531 16.2718 26.9531 13.6384C26.949 10.1084 25.5449 6.72409 23.0488 4.22792C20.5527 1.73176 17.1685 0.327545 13.6384 0.323298ZM13.6384 27.2763C10.941 27.2763 8.3042 26.4765 6.06138 24.9779C3.81855 23.4794 2.07048 21.3494 1.0382 18.8574C0.00592866 16.3653 -0.264176 13.6231 0.262045 10.9775C0.788266 8.33197 2.08718 5.90187 3.99452 3.99452C5.90187 2.08718 8.33197 0.788266 10.9775 0.262045C13.6231 -0.264176 16.3653 0.00592783 18.8574 1.0382C21.3494 2.07048 23.4794 3.81855 24.9779 6.06138C26.4765 8.3042 27.2763 10.941 27.2763 13.6384C27.2722 17.2541 25.834 20.7206 23.2773 23.2773C20.7206 25.834 17.2541 27.2722 13.6384 27.2763Z" fill="#50937C"/>
<path d="M13.6384 27.2763C10.941 27.2763 8.3042 26.4765 6.06138 24.9779C3.81855 23.4794 2.07048 21.3494 1.0382 18.8574C0.00592866 16.3653 -0.264176 13.6231 0.262045 10.9775C0.788266 8.33197 2.08718 5.90187 3.99452 3.99452C5.90187 2.08718 8.33197 0.788266 10.9775 0.262045C13.6231 -0.264176 16.3653 0.00592783 18.8574 1.0382C21.3494 2.07048 23.4794 3.81855 24.9779 6.06138C26.4765 8.3042 27.2763 10.941 27.2763 13.6384C27.2722 17.2541 25.834 20.7206 23.2773 23.2773C20.7206 25.834 17.2541 27.2722 13.6384 27.2763Z" fill="#30AB86"/>
<path d="M13.5642 20.834C12.611 21.4423 11.3911 21.6292 10.2717 21.6292C9.23986 21.6337 8.21287 21.4881 7.22293 21.197C5.95953 20.7144 5.77056 19.8379 5.77056 19.3586V10.9515C5.76854 10.6882 5.82399 10.4276 5.93294 10.1879C6.04189 9.94815 6.20175 9.73504 6.40144 9.56341L12.4572 4.43219C12.7704 4.17834 13.1612 4.03979 13.5644 4.03979C13.9676 4.03979 14.3587 4.17834 14.672 4.43219L20.7269 9.56341C20.9266 9.73498 21.0864 9.94806 21.1954 10.1878C21.3043 10.4275 21.3599 10.6881 21.3577 10.9515V19.3596C21.3577 19.8388 21.1688 20.7154 19.9062 21.1972C19.6081 21.3117 18.3181 21.6302 16.8566 21.6302C15.7374 21.6292 14.5173 21.4423 13.5642 20.834ZM19.2463 19.4678C19.34 19.4366 19.4281 19.3902 19.5066 19.3303L19.5298 10.9762L13.5644 5.98791L7.59908 10.9796H7.59795L7.62111 19.3302C7.69966 19.3901 7.78743 19.4365 7.8812 19.4676C8.29688 19.6238 10.7092 20.0749 12.1765 19.4752C11.407 18.5192 10.3623 16.92 10.3578 15.284H10.3567C10.3567 12.2974 12.0239 11.2264 13.5218 11.2264H13.5636H13.6051C14.9336 11.2264 16.3932 12.072 16.7064 14.3474C16.7488 14.6542 16.7695 14.9637 16.7685 15.2735C16.7685 16.913 15.7208 18.5169 14.9499 19.4751C16.418 20.0745 18.8301 19.6238 19.2463 19.4678ZM12.2092 15.2735C12.2092 16.2677 12.9322 17.4345 13.5639 18.24C14.195 17.4345 14.918 16.2678 14.918 15.2735C14.918 14.6198 14.7852 13.1108 13.5642 13.0772C12.3424 13.1108 12.2098 14.6198 12.2098 15.2735H12.2092Z" fill="white"/>
</svg>
