<svg width="138" height="136" viewBox="0 0 138 136" fill="none" xmlns="http://www.w3.org/2000/svg">
<path d="M62.8231 10.3453C65.6143 5.67052 72.3857 5.67052 75.1769 10.3453C77.3607 14.0029 82.2816 14.9316 85.7004 12.3902C90.0394 9.16488 96.3315 11.6938 97.0922 17.0465C97.6893 21.2474 101.802 23.9996 105.913 22.9498L106.17 22.8841C111.383 21.5528 116.109 26.312 114.741 31.5159C113.665 35.6089 116.408 39.7221 120.601 40.3008L120.803 40.3287C126.135 41.0647 128.69 47.2787 125.419 51.5528C122.846 54.9145 123.819 59.7764 127.481 61.9C132.161 64.6139 132.161 71.3861 127.481 74.1C123.819 76.2236 122.846 81.0855 125.419 84.4472C128.69 88.7213 126.135 94.9353 120.803 95.6713L120.601 95.6992C116.408 96.2779 113.665 100.391 114.741 104.484C116.109 109.688 111.383 114.447 106.17 113.116L105.913 113.05C101.802 112 97.6893 114.753 97.0922 118.954C96.3315 124.306 90.0394 126.835 85.7004 123.61C82.2816 121.068 77.3607 121.997 75.1769 125.655C72.3857 130.329 65.6143 130.329 62.8231 125.655C60.6393 121.997 55.7184 121.068 52.2996 123.61C47.9606 126.835 41.6685 124.306 40.9078 118.954C40.3107 114.753 36.1984 112 32.0872 113.05L31.8301 113.116C26.6167 114.447 21.8911 109.688 23.2593 104.484C24.3355 100.391 21.5919 96.2779 17.3995 95.6992L17.197 95.6713C11.8654 94.9353 9.30974 88.7213 12.581 84.4472C15.154 81.0855 14.1814 76.2236 10.5192 74.1C5.83927 71.3861 5.83927 64.6139 10.5192 61.9C14.1814 59.7764 15.154 54.9145 12.581 51.5528C9.30974 47.2787 11.8654 41.0647 17.197 40.3287L17.3995 40.3008C21.5918 39.7221 24.3355 35.6089 23.2593 31.5159C21.8911 26.312 26.6167 21.5528 31.8301 22.8841L32.0872 22.9498C36.1984 23.9996 40.3107 21.2474 40.9078 17.0465C41.6685 11.6938 47.9606 9.16488 52.2996 12.3902C55.7184 14.9316 60.6393 14.0029 62.8231 10.3453Z" fill="#F5D331"/>
<path d="M47.5877 54.154C46.4584 54.154 45.4464 53.9707 44.5517 53.604C43.6571 53.2373 42.9384 52.6947 42.3957 51.976C41.8677 51.2573 41.5891 50.392 41.5597 49.38H45.5637C45.6224 49.952 45.8204 50.392 46.1577 50.7C46.4951 50.9933 46.9351 51.14 47.4777 51.14C48.0351 51.14 48.4751 51.0153 48.7977 50.766C49.1204 50.502 49.2817 50.1427 49.2817 49.688C49.2817 49.3067 49.1497 48.9913 48.8857 48.742C48.6364 48.4927 48.3211 48.2873 47.9397 48.126C47.5731 47.9647 47.0451 47.7813 46.3557 47.576C45.3584 47.268 44.5444 46.96 43.9137 46.652C43.2831 46.344 42.7404 45.8893 42.2857 45.288C41.8311 44.6867 41.6037 43.902 41.6037 42.934C41.6037 41.4967 42.1244 40.3747 43.1657 39.568C44.2071 38.7467 45.5637 38.336 47.2357 38.336C48.9371 38.336 50.3084 38.7467 51.3497 39.568C52.3911 40.3747 52.9484 41.504 53.0217 42.956H48.9517C48.9224 42.4573 48.7391 42.0687 48.4017 41.79C48.0644 41.4967 47.6317 41.35 47.1037 41.35C46.6491 41.35 46.2824 41.4747 46.0037 41.724C45.7251 41.9587 45.5857 42.3033 45.5857 42.758C45.5857 43.2567 45.8204 43.6453 46.2897 43.924C46.7591 44.2027 47.4924 44.5033 48.4897 44.826C49.4871 45.1633 50.2937 45.486 50.9097 45.794C51.5404 46.102 52.0831 46.5493 52.5377 47.136C52.9924 47.7227 53.2197 48.478 53.2197 49.402C53.2197 50.282 52.9924 51.0813 52.5377 51.8C52.0977 52.5187 51.4524 53.0907 50.6017 53.516C49.7511 53.9413 48.7464 54.154 47.5877 54.154ZM65.1489 51.272H59.3849L58.4609 54H54.5229L60.1109 38.556H64.4669L70.0549 54H66.0729L65.1489 51.272ZM64.1809 48.368L62.2669 42.714L60.3749 48.368H64.1809ZM86.2536 38.556L80.7756 54H76.0676L70.5896 38.556H74.5936L78.4216 50.216L82.2716 38.556H86.2536ZM91.5879 41.57V44.694H96.6259V47.598H91.5879V50.986H97.2859V54H87.8259V38.556H97.2859V41.57H91.5879ZM42.4623 60.556V69.796C42.4623 70.72 42.6897 71.4313 43.1443 71.93C43.599 72.4287 44.2663 72.678 45.1463 72.678C46.0263 72.678 46.701 72.4287 47.1703 71.93C47.6397 71.4313 47.8743 70.72 47.8743 69.796V60.556H51.6363V69.774C51.6363 71.1527 51.343 72.3187 50.7563 73.272C50.1697 74.2253 49.3777 74.944 48.3803 75.428C47.3977 75.912 46.2977 76.154 45.0803 76.154C43.863 76.154 42.7703 75.9193 41.8023 75.45C40.849 74.966 40.0937 74.2473 39.5363 73.294C38.979 72.326 38.7003 71.1527 38.7003 69.774V60.556H42.4623ZM66.0481 65.528C66.0481 66.4227 65.8427 67.244 65.4321 67.992C65.0214 68.7253 64.3907 69.3193 63.5401 69.774C62.6894 70.2287 61.6334 70.456 60.3721 70.456H58.0401V76H54.2781V60.556H60.3721C61.6041 60.556 62.6454 60.7687 63.4961 61.194C64.3467 61.6193 64.9847 62.206 65.4101 62.954C65.8354 63.702 66.0481 64.56 66.0481 65.528ZM60.0861 67.464C60.8047 67.464 61.3401 67.2953 61.6921 66.958C62.0441 66.6207 62.2201 66.144 62.2201 65.528C62.2201 64.912 62.0441 64.4353 61.6921 64.098C61.3401 63.7607 60.8047 63.592 60.0861 63.592H58.0401V67.464H60.0861ZM83.7787 60.556V63.57H79.6867V76H75.9247V63.57H71.8327V60.556H83.7787ZM92.9707 76.154C91.5187 76.154 90.1841 75.8167 88.9667 75.142C87.7641 74.4673 86.8034 73.5287 86.0847 72.326C85.3807 71.1087 85.0287 69.7447 85.0287 68.234C85.0287 66.7233 85.3807 65.3667 86.0847 64.164C86.8034 62.9613 87.7641 62.0227 88.9667 61.348C90.1841 60.6733 91.5187 60.336 92.9707 60.336C94.4227 60.336 95.7501 60.6733 96.9527 61.348C98.1701 62.0227 99.1234 62.9613 99.8127 64.164C100.517 65.3667 100.869 66.7233 100.869 68.234C100.869 69.7447 100.517 71.1087 99.8127 72.326C99.1087 73.5287 98.1554 74.4673 96.9527 75.142C95.7501 75.8167 94.4227 76.154 92.9707 76.154ZM92.9707 72.722C94.2027 72.722 95.1854 72.3113 95.9187 71.49C96.6667 70.6687 97.0407 69.5833 97.0407 68.234C97.0407 66.87 96.6667 65.7847 95.9187 64.978C95.1854 64.1567 94.2027 63.746 92.9707 63.746C91.7241 63.746 90.7267 64.1493 89.9787 64.956C89.2454 65.7627 88.8787 66.8553 88.8787 68.234C88.8787 69.598 89.2454 70.6907 89.9787 71.512C90.7267 72.3187 91.7241 72.722 92.9707 72.722ZM50.9317 93.512C50.9317 94.3187 50.7191 95.0667 50.2937 95.756C49.8831 96.4307 49.2671 96.988 48.4457 97.428C47.6391 97.8533 46.6784 98.088 45.5637 98.132V99.914H44.1557V98.11C42.6011 97.978 41.3471 97.516 40.3937 96.724C39.4404 95.9173 38.9344 94.8247 38.8757 93.446H42.8797C42.9677 94.326 43.3931 94.8907 44.1557 95.14V91.664C43.0117 91.3707 42.0951 91.0847 41.4057 90.806C40.7311 90.5273 40.1371 90.08 39.6237 89.464C39.1104 88.848 38.8537 88.0047 38.8537 86.934C38.8537 85.5993 39.3451 84.5287 40.3277 83.722C41.3251 82.9153 42.6011 82.4607 44.1557 82.358V80.576H45.5637V82.358C47.1037 82.4753 48.3211 82.9227 49.2157 83.7C50.1104 84.4773 50.6091 85.5553 50.7117 86.934H46.6857C46.5977 86.142 46.2237 85.6287 45.5637 85.394V88.804C46.7811 89.1413 47.7197 89.442 48.3797 89.706C49.0397 89.97 49.6264 90.41 50.1397 91.026C50.6677 91.6273 50.9317 92.456 50.9317 93.512ZM42.8357 86.758C42.8357 87.1247 42.9457 87.4327 43.1657 87.682C43.4004 87.9313 43.7304 88.1513 44.1557 88.342V85.284C43.7451 85.3573 43.4224 85.5187 43.1877 85.768C42.9531 86.0027 42.8357 86.3327 42.8357 86.758ZM45.5637 95.206C46.0037 95.1327 46.3484 94.9567 46.5977 94.678C46.8617 94.3993 46.9937 94.0547 46.9937 93.644C46.9937 93.2627 46.8691 92.9547 46.6197 92.72C46.3851 92.4707 46.0331 92.258 45.5637 92.082V95.206ZM52.9602 85.438V81.94H59.0542V98H55.1382V85.438H52.9602ZM71.8797 84.756L66.3577 98H62.5077L68.0957 85.174H61.2537V81.962H71.8797V84.756ZM73.4011 89.75C73.4011 87.2273 73.8851 85.24 74.8531 83.788C75.8358 82.336 77.4125 81.61 79.5831 81.61C81.7538 81.61 83.3231 82.336 84.2911 83.788C85.2738 85.24 85.7651 87.2273 85.7651 89.75C85.7651 92.302 85.2738 94.304 84.2911 95.756C83.3231 97.208 81.7538 97.934 79.5831 97.934C77.4125 97.934 75.8358 97.208 74.8531 95.756C73.8851 94.304 73.4011 92.302 73.4011 89.75ZM82.0691 89.75C82.0691 88.2687 81.9078 87.132 81.5851 86.34C81.2625 85.5333 80.5951 85.13 79.5831 85.13C78.5711 85.13 77.9038 85.5333 77.5811 86.34C77.2585 87.132 77.0971 88.2687 77.0971 89.75C77.0971 90.7473 77.1558 91.576 77.2731 92.236C77.3905 92.8813 77.6251 93.4093 77.9771 93.82C78.3438 94.216 78.8791 94.414 79.5831 94.414C80.2871 94.414 80.8151 94.216 81.1671 93.82C81.5338 93.4093 81.7758 92.8813 81.8931 92.236C82.0105 91.576 82.0691 90.7473 82.0691 89.75ZM87.7527 89.75C87.7527 87.2273 88.2367 85.24 89.2047 83.788C90.1874 82.336 91.764 81.61 93.9347 81.61C96.1054 81.61 97.6747 82.336 98.6427 83.788C99.6254 85.24 100.117 87.2273 100.117 89.75C100.117 92.302 99.6254 94.304 98.6427 95.756C97.6747 97.208 96.1054 97.934 93.9347 97.934C91.764 97.934 90.1874 97.208 89.2047 95.756C88.2367 94.304 87.7527 92.302 87.7527 89.75ZM96.4207 89.75C96.4207 88.2687 96.2594 87.132 95.9367 86.34C95.614 85.5333 94.9467 85.13 93.9347 85.13C92.9227 85.13 92.2554 85.5333 91.9327 86.34C91.61 87.132 91.4487 88.2687 91.4487 89.75C91.4487 90.7473 91.5074 91.576 91.6247 92.236C91.742 92.8813 91.9767 93.4093 92.3287 93.82C92.6954 94.216 93.2307 94.414 93.9347 94.414C94.6387 94.414 95.1667 94.216 95.5187 93.82C95.8854 93.4093 96.1274 92.8813 96.2447 92.236C96.362 91.576 96.4207 90.7473 96.4207 89.75Z" fill="white"/>
</svg>
